<?xml version="1.0" encoding="UTF-8"?>
<svg width="60px" height="61px" viewBox="0 0 60 61" version="1.1" xmlns="http://www.w3.org/2000/svg" xmlns:xlink="http://www.w3.org/1999/xlink">
    <title>Group 3</title>
    <defs>
        <filter id="filter-1">
            <feColorMatrix in="SourceGraphic" type="matrix" values="0 0 0 0 0.752941 0 0 0 0 0.752941 0 0 0 0 0.752941 0 0 0 1.000000 0"></feColorMatrix>
        </filter>
    </defs>
    <g id="Mobile" stroke="none" stroke-width="1" fill="none" fill-rule="evenodd">
        <g id="Mobile-Copy" transform="translate(-152.000000, -606.000000)">
            <g filter="url(#filter-1)" id="Group-3">
                <g transform="translate(152.000000, 606.000000)">
                    <path d="M30,0 C46.5684706,0 60,13.6553882 60,30.5 C60,47.3446118 46.5684706,61 30,61 C13.4315294,61 0,47.3446118 0,30.5 C0,13.6553882 13.4315294,0 30,0 Z M30.0142848,13 L30,13 C20.6107139,13 13,20.6107143 13,30 C13,39.3885714 20.6107139,47 30,47 C39.3892843,47 47,39.3885714 47,30 C47.0042839,20.615 39.3992843,13.0035714 30.0142848,13 Z M32.549999,32.5928571 C33.8971417,35.9878571 34.8549988,39.525 35.4071417,43.1357143 C33.687856,43.8342857 31.8485704,44.1935714 29.9928562,44.1928586 C26.8814278,44.1942857 23.856428,43.17 21.3857138,41.2785714 C23.7785709,37.6642857 27.0999992,34.0928571 32.549999,32.5928571 Z M44.0142841,32.4071429 C43.3485698,36.1885714 41.1885699,39.5435714 38.0214272,41.7142857 C37.4492844,38.4114286 36.5564273,35.1728571 35.3571417,32.0428571 C38.2442844,31.7185714 41.1642842,31.8414286 44.0142841,32.4071429 Z M30.4785705,27.8857143 C30.8071419,28.6 31.149999,29.2642857 31.4571419,29.9857143 C25.5357136,31.7285714 21.8428567,35.6214286 19.3142854,39.3357143 C17.0428569,36.7571429 15.7949999,33.4357143 15.8070549,30 L15.8070549,29.5428571 L15.892857,29.5428571 C20.9499996,29.5428571 25.9785707,29.2071429 30.4785705,27.8857143 Z M41.1857128,21.2285714 C43.0749984,23.6185714 44.1421412,26.555 44.2285698,29.6 C40.9507128,28.97 37.5899987,28.8907143 34.2857132,29.3642857 C33.9214275,28.5428571 33.5714275,27.7285714 33.1642846,26.95 C36.2542845,25.7257143 38.9971415,23.7607143 41.1499985,21.2285714 L41.1857128,21.2285714 Z M23.9285708,17.1785714 C25.8549993,19.7814286 27.5999992,22.5135714 29.1499991,25.3571429 C24.9085708,26.3921429 20.5507139,26.8721429 16.1857141,26.7857143 C17.1792855,22.5764286 20.0264282,19.0435714 23.9285708,17.1785714 Z M30.0357134,15.80714 C33.3935703,15.8085714 36.6414273,17.0092857 39.1928564,19.1928571 L39.22857,19.1928571 C37.2714273,21.5442857 34.7392846,23.3507143 31.8785704,24.4357143 C30.3342848,21.5785714 28.6014277,18.8271429 26.6928564,16.2 C27.7878564,15.9385714 28.9099992,15.8064286 30.0357134,15.80714 Z" id="Combined-Shape" fill="#929292"></path>
                </g>
            </g>
        </g>
    </g>
</svg>