<?xml version="1.0" encoding="UTF-8"?>
<svg width="60px" height="61px" viewBox="0 0 60 61" version="1.1" xmlns="http://www.w3.org/2000/svg" xmlns:xlink="http://www.w3.org/1999/xlink">
    <title>Group 2</title>
    <defs>
        <filter id="filter-1">
            <feColorMatrix in="SourceGraphic" type="matrix" values="0 0 0 0 0.751840 0 0 0 0 0.751840 0 0 0 0 0.751840 0 0 0 1.000000 0"></feColorMatrix>
        </filter>
    </defs>
    <g id="Mobile" stroke="none" stroke-width="1" fill="none" fill-rule="evenodd">
        <g id="Mobile-Copy" transform="translate(-302.000000, -606.000000)">
            <g filter="url(#filter-1)" id="Group-2">
                <g transform="translate(302.000000, 606.000000)">
                    <path d="M30,0 C46.5684706,0 60,13.6553882 60,30.5 C60,47.3446118 46.5684706,61 30,61 C13.4315294,61 0,47.3446118 0,30.5 C0,13.6553882 13.4315294,0 30,0 Z M29.9478584,14 C20.5787145,14.0085266 12.9914542,21.587251 13,30.9267179 C13.006422,38.201327 17.6792335,44.6566722 24.6022076,46.9553008 C25.4503842,47.1116218 25.7568682,46.5858149 25.7568682,46.145274 L25.7568682,46.145274 L25.7568682,42.9975383 L25.4668046,43.0558615 C20.997884,43.8894017 20.0548407,41.0008933 20.0548407,41.0008933 C19.285067,39.0468813 18.1731717,38.5210744 18.1731717,38.5210744 C16.7329499,37.5439538 18.0871369,37.4995685 18.2678654,37.4979084 L18.2872122,37.4978827 C19.3770122,37.6463876 20.3378038,38.2894352 20.8887622,39.2387298 C21.0927912,39.5879606 21.3141033,39.8764337 21.5461,40.1101364 C21.389425,40.0422167 21.2279167,40.0520833 21.13,40.15 C20.99,40.29 21.06,40.57 21.26,40.76 C21.46,40.95 21.74,40.99 21.87,40.85 C21.9733333,40.7466667 21.9622619,40.5670635 21.8687451,40.4034988 C23.3069822,41.5450736 25.0488981,40.9968392 25.8281435,40.6598294 C25.9001316,39.8014852 26.2828802,38.9985639 26.9044012,38.400281 C23.1339356,37.9739511 19.1710265,36.5173239 19.1710265,30.0371095 C19.1475056,28.3573697 19.7754414,26.7330529 20.9243999,25.5038017 C20.4012389,24.0457534 20.4596847,22.4434636 21.0883332,21.0273378 C21.0883332,21.0273378 22.5138401,20.5725859 25.7497407,22.7610793 C28.5309046,22.0029227 31.4645977,22.0029227 34.2457616,22.7610793 C37.4887897,20.5725859 38.9071691,21.0273378 38.9071691,21.0273378 C39.5351048,22.4434636 39.5942634,24.0457534 39.0711023,25.5038017 C40.2179226,26.7337634 40.8437201,28.3580803 40.8173483,30.0371095 C40.8173483,36.5386404 36.8544392,37.9668456 33.076846,38.38607 C33.8929486,39.2181238 34.3113349,40.3592668 34.224379,41.5195947 L34.224379,41.5195947 L34.224379,46.159485 L34.2276113,46.2391366 C34.2623596,46.6666062 34.5815942,47.123325 35.3932946,46.9695118 C44.2820427,44.0178879 49.0867136,34.4418079 46.1259358,25.580541 C43.8166147,18.6690229 37.3269947,14.0085266 30.0191337,14.014211 L30.0191337,14.014211 Z M20.7631412,39.3100951 C20.6131412,39.1100951 20.3831412,39.0100951 20.2331412,39.1100951 C20.0831412,39.2100951 20.0931412,39.4700951 20.2331412,39.6800951 C20.3731412,39.8900951 20.6131412,39.9900951 20.7631412,39.8900951 C20.9131412,39.7800951 20.9131412,39.5100951 20.7631412,39.3100951 Z M19.704789,38.31 C19.544789,38.14 19.334789,38.09 19.214789,38.2 C19.108789,38.358 19.139789,38.569 19.284789,38.69 C19.434789,38.86 19.664789,38.91 19.774789,38.8 C19.894789,38.7 19.864789,38.48 19.704789,38.31 Z" id="Combined-Shape" fill="#929292"></path>
                </g>
            </g>
        </g>
    </g>
</svg>