<?xml version="1.0" encoding="UTF-8"?>
<svg width="60px" height="61px" viewBox="0 0 60 61" version="1.1" xmlns="http://www.w3.org/2000/svg" xmlns:xlink="http://www.w3.org/1999/xlink">
    <title>Group 5</title>
    <defs>
        <filter id="filter-1">
            <feColorMatrix in="SourceGraphic" type="matrix" values="0 0 0 0 0.752941 0 0 0 0 0.752941 0 0 0 0 0.752941 0 0 0 1.000000 0"></feColorMatrix>
        </filter>
    </defs>
    <g id="Mobile" stroke="none" stroke-width="1" fill="none" fill-rule="evenodd">
        <g id="Mobile-Copy" transform="translate(-2.000000, -606.000000)">
            <g filter="url(#filter-1)" id="Group-5">
                <g transform="translate(2.000000, 606.000000)">
                    <path d="M30,0 C46.5684706,0 60,13.6553882 60,30.5 C60,47.3446118 46.5684706,61 30,61 C13.4315294,61 0,47.3446118 0,30.5 C0,13.6553882 13.4315294,0 30,0 Z M30.0320285,13 L29.9679715,13.0641779 L27.7546072,13.0648539 C25.1078949,13.0677511 24.4515726,13.083065 22.9857651,13.1640101 C21.5793594,13.1932466 20.1886121,13.4606544 18.8718861,13.9555369 C16.5765125,14.8319211 14.7637011,16.6474413 13.8896797,18.9471477 C13.3957295,20.2663591 13.1288256,21.6604446 13.0996441,23.0687919 C13.0298163,24.6842237 13.0052822,25.3183296 13.0007936,28.7047776 L13.0006747,32.2817201 C13.0035665,34.9334282 13.0188516,35.5909895 13.0996441,37.0595638 C13.1565836,38.450797 13.4448399,39.8213507 13.9537367,41.1170302 C14.8284698,43.4160235 16.6405694,45.2322567 18.9359431,46.1086409 C20.252669,46.6035235 21.6441281,46.8709312 23.0498221,46.9001678 C24.8576512,46.9786074 25.4341637,47 30.0320285,47 C34.6298932,47 35.2064057,47 37.0142349,46.9001678 C38.4199288,46.8709312 39.8113879,46.6035235 41.1281139,46.1086409 C43.4234875,45.2322567 45.2362989,43.4160235 46.1103203,41.1170302 C46.6042705,39.7978188 46.8711744,38.4037332 46.9003559,36.9953859 C46.9786477,35.1841443 47,34.6065436 47,30 C47,25.3934564 47,24.8158557 46.9003559,23.0046141 C46.8711744,21.5955537 46.6042705,20.2021812 46.1103203,18.8829698 C45.2362989,16.5832634 43.4234875,14.7677433 41.1281139,13.8913591 C39.8113879,13.3964765 38.4199288,13.1290688 37.0142349,13.0998322 C35.2064057,13.0213926 34.6298932,13 30.0320285,13 Z M36.8149466,16.1946309 C37.8896797,16.203901 38.9544484,16.4021393 39.9608541,16.7793624 C41.4341637,17.3526846 42.5985765,18.5192953 43.1708185,19.9953859 C43.547331,21.0036913 43.7451957,22.0704698 43.7544484,23.1472315 C43.8374852,24.8873625 43.8532468,25.4479558 43.8540584,29.6389039 L43.8540349,31.0591409 C43.8534006,34.6342253 43.8457888,35.2263353 43.7544484,36.8670302 C43.7451957,37.9437919 43.547331,39.0105705 43.1708185,40.0188758 C42.5985765,41.4949664 41.4341637,42.6615772 39.9608541,43.2356124 C38.9544484,43.6128356 37.8896797,43.8103607 36.8149466,43.8196309 C35.1250361,43.9005759 34.556031,43.918351 30.6678582,43.9200361 L28.6332268,43.9200491 C25.3112228,43.9190011 24.7143407,43.9093064 23.1209964,43.8196309 C22.0462633,43.8103607 20.9814947,43.6128356 19.975089,43.2356124 C18.513879,42.651594 17.3629893,41.483557 16.8007117,40.011745 C16.4241993,39.0034396 16.2263345,37.9366611 16.2170819,36.8598993 C16.13879,35.2192044 16.1203045,34.6270944 16.1177672,31.05201 L16.117899,28.043896 C16.1202056,25.2565832 16.1340451,24.6316415 16.2170819,23.1401007 C16.2263345,22.0633389 16.4241993,20.9965604 16.8007117,19.988255 C17.3729537,18.532844 18.5224199,17.3812081 19.975089,16.8078859 C20.9814947,16.4306628 22.0462633,16.2324245 23.1209964,16.2231544 C24.9074733,16.1375839 25.4483986,16.1233221 29.9679715,16.1233221 L29.9679715,16.0947987 L31.3343048,16.0949356 C34.6231273,16.0960312 35.2269672,16.1058911 36.8149466,16.1946309 Z M30.5,21 C25.8055237,21 22,24.8055237 22,29.5 C22,34.1944763 25.8055237,38 30.5,38 C35.1944763,38 39,34.1944763 39,29.5 C39,24.8055237 35.1944763,21 30.5,21 Z M30.5,23.9840426 C33.5459493,23.9840426 36.0159574,26.4533552 36.0159574,29.5 C36.0159574,32.5466448 33.5459493,35.0159574 30.5,35.0159574 C27.4540507,35.0159574 24.9840426,32.5466448 24.9840426,29.5 C24.9840426,26.4533552 27.4540507,23.9840426 30.5,23.9840426 Z M39,19 C37.8951049,19 37,19.8958042 37,21 C37,22.1041958 37.8951049,23 39,23 C40.1041958,23 41,22.1041958 41,21 C41,19.8958042 40.1041958,19 39,19 Z" id="Combined-Shape" fill="#929292"></path>
                </g>
            </g>
        </g>
    </g>
</svg>