<?xml version="1.0" encoding="UTF-8"?>
<svg width="60px" height="61px" viewBox="0 0 60 61" version="1.1" xmlns="http://www.w3.org/2000/svg" xmlns:xlink="http://www.w3.org/1999/xlink">
    <title>Group 4</title>
    <defs>
        <filter id="filter-1">
            <feColorMatrix in="SourceGraphic" type="matrix" values="0 0 0 0 0.752941 0 0 0 0 0.752941 0 0 0 0 0.752941 0 0 0 1.000000 0"></feColorMatrix>
        </filter>
    </defs>
    <g id="Mobile" stroke="none" stroke-width="1" fill="none" fill-rule="evenodd">
        <g id="Mobile-Copy" transform="translate(-77.000000, -606.000000)">
            <g filter="url(#filter-1)" id="Group-4">
                <g transform="translate(77.000000, 606.000000)">
                    <path d="M30,0 C46.5684706,0 60,13.6553882 60,30.5 C60,47.3446118 46.5684706,61 30,61 C13.4315294,61 0,47.3446118 0,30.5 C0,13.6553882 13.4315294,0 30,0 Z M36.6999026,25.0044881 C34.345112,24.916562 32.1328678,26.1260076 30.9425138,28.152613 L30.9425138,28.152613 L30.8314388,28.152613 L30.8314388,25.4840852 L25,25.4840852 L25.0246833,45 L31.1029555,45 L31.1029555,35.3471851 C31.1029555,32.7948674 31.6336473,30.3353949 34.7560896,30.3353949 C37.7333021,30.3353949 37.905438,32.9850609 37.91501,35.1929859 L37.915557,45 L44,45 L44,34.2957606 C44,29.0441718 42.8707373,25.0044881 36.6999026,25.0044881 Z M22,26 L16,26 L16,45 L22,45 L22,26 Z M19.5,17 C17.5670455,17 16,18.5670455 16,20.5 C16,22.4329545 17.5670455,24 19.5,24 C21.4329545,24 23,22.4329545 23,20.5 C23,18.5670455 21.4329545,17 19.5,17 Z" id="Combined-Shape" fill="#929292"></path>
                </g>
            </g>
        </g>
    </g>
</svg>