<?xml version="1.0" encoding="UTF-8"?>
<svg width="60px" height="61px" viewBox="0 0 60 61" version="1.1" xmlns="http://www.w3.org/2000/svg" xmlns:xlink="http://www.w3.org/1999/xlink">
    <title>Group</title>
    <defs>
        <filter id="filter-1">
            <feColorMatrix in="SourceGraphic" type="matrix" values="0 0 0 0 0.752941 0 0 0 0 0.752941 0 0 0 0 0.752941 0 0 0 1.000000 0"></feColorMatrix>
        </filter>
    </defs>
    <g id="Mobile" stroke="none" stroke-width="1" fill="none" fill-rule="evenodd">
        <g id="Mobile-Copy" transform="translate(-227.000000, -606.000000)">
            <g filter="url(#filter-1)" id="Group">
                <g transform="translate(227.000000, 606.000000)">
                    <path d="M30,0 C46.5684706,0 60,13.6553882 60,30.5 C60,47.3446118 46.5684706,61 30,61 C13.4315294,61 0,47.3446118 0,30.5 C0,13.6553882 13.4315294,0 30,0 Z M30.773882,18.9184696 C29.3733361,20.2533071 28.5774092,22.1151304 28.5752677,24.0652672 C28.5759815,24.6081783 28.6359437,25.1496417 28.7537266,25.679523 C23.1529708,25.4015525 17.9291203,22.7326013 14.3770733,18.3321256 C12.538946,21.5519506 13.4754986,25.6650454 16.5185807,27.7425853 C15.4099937,27.7071151 14.3263909,27.4045326 13.3562881,26.8594499 L13.3562881,26.9535544 C13.3591434,30.3181557 15.699811,33.2158534 18.9527609,33.8811005 C17.9255511,34.1605188 16.8505144,34.2025039 15.8047449,34.0041604 C16.7155994,36.884485 19.3325215,38.857786 22.3149276,38.9113532 C19.8450556,40.8709005 16.7984044,41.930663 13.6632375,41.9234242 C13.1071594,41.9227003 12.5525089,41.8886779 12,41.8220808 C15.1922738,43.9075834 18.9106446,45.0107788 22.7075373,45 C35.556582,45 42.5450346,34.2285637 42.5450346,24.8897683 L42.5450346,23.9711626 C43.9013227,22.9700345 45.0712996,21.7321971 46,20.315561 C44.7265169,20.8845318 43.3773672,21.2602263 41.9953811,21.4303385 C43.4530338,20.5464792 44.5416334,19.154455 45.0577367,17.5141395 C43.6907411,18.3386405 42.1931136,18.9184696 40.6319547,19.2297387 C37.9943313,16.3827127 33.5813983,16.2437274 30.773882,18.9184696 Z" id="Combined-Shape" fill="#929292"></path>
                </g>
            </g>
        </g>
    </g>
</svg>